<?xml version="1.0" standalone="no"?>
<!DOCTYPE svg PUBLIC "-//W3C//DTD SVG 20010904//EN"
 "http://www.w3.org/TR/2001/REC-SVG-20010904/DTD/svg10.dtd">
<svg version="1.0" xmlns="http://www.w3.org/2000/svg"
 width="256.000000pt" height="256.000000pt" viewBox="0 0 256.000000 256.000000"
 preserveAspectRatio="xMidYMid meet">
<metadata>
Created by potrace 1.14, written by Peter Selinger 2001-2017
</metadata>
<g transform="translate(0.000000,256.000000) scale(0.100000,-0.100000)"
fill="#000000" stroke="none">
<path d="M985 2244 c-82 -18 -179 -40 -215 -48 -36 -9 -77 -17 -93 -20 -15 -3
-37 -8 -48 -11 -12 -4 -31 -8 -42 -10 -45 -6 -362 -78 -369 -84 -3 -3 4 -53
18 -111 13 -58 26 -117 29 -132 3 -16 12 -56 20 -90 8 -35 16 -74 19 -88 3
-14 7 -34 10 -45 4 -17 14 -62 42 -190 2 -11 6 -31 9 -45 11 -58 14 -70 18
-78 3 -4 8 -23 11 -42 3 -19 39 -188 81 -375 41 -187 77 -347 79 -355 1 -8 9
-43 16 -78 12 -60 14 -63 39 -58 40 6 351 75 391 86 19 5 51 12 70 15 19 3 64
13 100 21 36 9 76 18 90 20 14 3 83 18 155 34 178 40 179 41 140 200 -2 8 -4
20 -4 25 -1 6 -30 20 -65 33 -35 13 -83 35 -107 51 l-44 28 0 195 1 196 -161
57 c-88 32 -165 60 -171 62 -6 2 -14 -10 -17 -26 -5 -24 -12 -31 -30 -31 -15
0 -28 -9 -36 -23 -10 -18 -19 -23 -38 -19 -13 2 -35 -1 -47 -8 -18 -9 -29 -9
-45 -1 -11 6 -32 9 -45 5 -18 -4 -28 -1 -38 15 -7 12 -23 21 -36 21 -15 0 -26
8 -32 24 -5 14 -18 30 -30 36 -12 7 -20 21 -20 37 0 15 -7 34 -16 44 -12 13
-13 22 -5 37 6 11 8 33 5 49 -4 20 -1 33 10 42 9 8 16 26 16 42 0 22 6 30 24
35 13 3 28 16 35 30 6 15 19 24 33 24 12 0 32 9 44 21 19 18 24 19 35 6 12
-13 17 -13 42 0 26 13 31 13 46 -1 10 -9 30 -16 45 -16 19 0 30 -7 38 -25 6
-14 20 -25 30 -25 18 0 40 -37 32 -52 -3 -4 5 -12 17 -18 17 -9 20 -18 15 -41
-3 -17 0 -38 7 -49 9 -16 9 -24 -1 -40 -6 -11 -12 -32 -12 -46 0 -21 4 -25 18
-19 9 4 85 32 167 63 83 30 153 58 157 61 4 3 -4 51 -17 106 -13 55 -27 116
-30 135 -3 19 -12 62 -20 95 -8 33 -28 125 -45 205 -34 155 -48 181 -99 179
-14 -1 -93 -16 -176 -35z m-75 -216 c0 -10 -2 -18 -5 -18 -3 0 -45 -9 -93 -19
-48 -11 -98 -22 -112 -25 -14 -2 -47 -9 -74 -16 -35 -8 -52 -8 -60 0 -17 17 5
25 148 55 72 16 140 31 150 35 32 11 46 8 46 -12z m400 -1003 c0 -8 -10 -17
-22 -20 -43 -10 -425 -94 -449 -99 -13 -2 -66 -14 -118 -25 -52 -12 -96 -19
-99 -16 -2 2 -2 10 1 18 4 12 45 22 277 72 8 2 69 16 135 31 265 59 275 60
275 39z m38 -172 c-2 -10 -17 -20 -38 -25 -59 -13 -71 -15 -195 -43 -66 -15
-131 -29 -143 -31 -13 -3 -83 -18 -155 -34 -152 -35 -153 -35 -160 -16 -5 13
23 22 158 50 11 3 49 11 85 20 36 8 76 17 90 20 14 2 55 11 91 20 37 8 78 17
90 20 13 3 35 8 49 11 14 3 41 8 60 11 19 3 37 8 39 10 12 11 32 2 29 -13z"/>
<path d="M104 2049 c-58 -17 -61 -41 -25 -201 17 -79 33 -152 35 -163 3 -11
19 -83 36 -160 17 -77 33 -151 36 -165 3 -14 11 -53 19 -86 8 -34 16 -73 19
-85 22 -107 57 -263 60 -268 2 -3 7 -22 10 -41 19 -118 109 -497 121 -509 16
-16 63 -19 107 -8 31 8 31 1 -7 167 -13 58 -26 116 -29 130 -3 14 -23 108 -46
210 -56 257 -81 369 -85 392 -2 11 -6 27 -9 36 -3 9 -7 28 -10 42 -3 14 -32
149 -66 300 -33 151 -62 284 -64 295 -23 114 -28 125 -49 124 -12 0 -36 -5
-53 -10z"/>
<path d="M756 1675 c-121 -43 -134 -209 -21 -269 99 -53 221 20 219 131 -3
104 -101 172 -198 138z"/>
<path d="M1605 1594 c-110 -41 -222 -83 -250 -94 -27 -10 -90 -34 -139 -53
l-89 -34 84 -31 c46 -17 202 -74 346 -126 l262 -96 68 26 c37 14 86 32 108 39
22 7 105 38 184 69 79 30 148 53 151 51 4 -3 7 -62 7 -132 -1 -94 -4 -132 -15
-142 -10 -10 -13 -38 -11 -105 l3 -92 43 1 c24 1 49 7 55 13 16 16 14 172 -3
182 -9 6 -12 44 -12 142 1 73 1 140 2 148 1 14 23 26 74 44 19 6 14 26 -6 26
-7 0 -70 23 -142 51 -71 28 -148 57 -170 64 -45 15 -219 81 -250 94 -26 12
-86 31 -94 30 -3 0 -96 -34 -206 -75z"/>
<path d="M1390 1089 l0 -174 48 -24 c26 -12 54 -27 63 -31 44 -22 201 -52 288
-55 144 -4 258 21 419 91 l42 19 0 172 c0 95 -3 173 -7 173 -4 0 -101 -34
-215 -75 l-207 -76 -58 20 c-32 10 -110 38 -173 61 -63 23 -126 45 -140 50
-14 4 -33 11 -42 15 -17 7 -18 -5 -18 -166z"/>
</g>
</svg>
